<?xml version="1.0" encoding="UTF-8"?>
<svg id="Layer_1" data-name="Layer 1" xmlns="http://www.w3.org/2000/svg" viewBox="0 0 92 68">
  <defs>
    <style>
      .cls-1 {
        fill: #abb2bf;
        stroke-width: 0px;
      }
    </style>
  </defs>
  <path class="cls-1" d="m79.25,7.54C71.29,1.13,58.7.05,58.16,0c-.84-.07-1.63.4-1.98,1.17-.03.05-.3.68-.61,1.66,5.27.89,11.73,2.68,17.59,6.31.94.58,1.23,1.81.65,2.75-.38.62-1.03.95-1.7.95-.36,0-.73-.1-1.05-.3-10.06-6.24-22.62-6.55-25.05-6.55s-14.99.31-25.05,6.55c-.94.59-2.17.3-2.75-.64-.59-.95-.3-2.17.64-2.76,5.85-3.62,12.32-5.42,17.59-6.3-.3-.99-.58-1.62-.6-1.67-.35-.77-1.14-1.26-1.98-1.17-.54.04-13.13,1.12-21.2,7.62C8.43,11.53,0,34.31,0,54c0,.35.09.69.27.99,5.81,10.22,21.68,12.89,25.3,13.01h.06c.64,0,1.24-.3,1.62-.82l3.66-5.03c-9.87-2.55-14.91-6.87-15.2-7.13-.83-.73-.91-1.99-.17-2.82.73-.83,1.99-.91,2.82-.18.12.11,9.4,7.98,27.65,7.98s27.56-7.91,27.66-7.98c.83-.72,2.09-.65,2.82.19.73.83.65,2.09-.18,2.81-.29.26-5.33,4.59-15.2,7.13l3.66,5.03c.37.52.98.82,1.62.82h.06c3.62-.12,19.48-2.79,25.3-13.01.17-.3.27-.64.27-.99,0-19.7-8.43-42.48-12.75-46.46h0Zm-46.25,38.46c-3.87,0-7-3.58-7-8s3.13-8,7-8,7,3.58,7,8-3.13,8-7,8Zm26,0c-3.87,0-7-3.58-7-8s3.13-8,7-8,7,3.58,7,8-3.13,8-7,8Z"/>
</svg>