<?xml version="1.0" encoding="UTF-8"?>
<svg id="Layer_1" data-name="Layer 1" xmlns="http://www.w3.org/2000/svg" viewBox="0 0 79.9 78.28">
  <defs>
    <style>
      .cls-1 {
        fill: #abb2bf;
        stroke-width: 0px;
      }
    </style>
  </defs>
  <path class="cls-1" d="m35.5.28C17.1,2.28,2.3,17.08.3,35.08c-2.4,20,10,37.2,27.6,42.8v-9.2s-1.6.4-3.6.4c-5.6,0-8-4.8-8.4-7.6-.4-1.6-1.2-2.8-2.4-4-1.2-.4-1.6-.4-1.6-.8,0-.8,1.2-.8,1.6-.8,2.4,0,4.4,2.8,5.2,4,2,3.2,4.4,4,5.6,4,1.6,0,2.8-.4,3.6-.8.4-2.8,1.6-5.6,4-7.2-9.2-2-16-7.2-16-16,0-4.4,2-8.8,4.8-12-.4-.8-.8-2.8-.8-5.6,0-1.6,0-4,1.2-6.4,0,0,5.6,0,11.2,5.2,2-.8,4.8-1.2,7.6-1.2s5.6.4,8,1.2c5.2-5.2,11.2-5.2,11.2-5.2.8,2.4.8,4.8.8,6.4,0,3.2-.4,4.8-.8,5.6,2.8,3.2,4.8,7.2,4.8,12,0,8.8-6.8,14-16,16,2.4,2,4,5.6,4,9.2v13.2c16.4-5.2,28-20.4,28-38C79.9,16.28,59.5-2.52,35.5.28Z"/>
</svg>