<?xml version="1.0" encoding="UTF-8"?>
<svg id="Layer_1" data-name="Layer 1" xmlns="http://www.w3.org/2000/svg" viewBox="0 0 39.92 38.78">
  <defs>
    <style>
      .cls-1 {
        stroke-width: 0px;
      }
    </style>
  </defs>
  <path class="cls-1" d="m17.72.14C8.52,1.14,1.12,8.54.12,17.54c-1,9.4,4.4,17.8,12.6,21,.6.2,1.2-.2,1.2-1v-3.2s-.8.2-1.8.2c-2.8,0-4-2.4-4.2-3.8-.2-.8-.6-1.4-1.2-2-.6-.2-.8-.2-.8-.4,0-.4.6-.4.8-.4,1.2,0,2.2,1.4,2.6,2,1,1.6,2.2,2,2.8,2,.8,0,1.4-.2,1.8-.4.2-1.4.8-2.8,2-3.6-4.6-1-8-3.6-8-8,0-2.2,1-4.4,2.4-6-.2-.4-.4-1.4-.4-2.8,0-.8,0-2,.6-3.2,0,0,2.8,0,5.6,2.6,1-.4,2.4-.6,3.8-.6s2.8.2,4,.6c2.6-2.6,5.6-2.6,5.6-2.6.4,1.2.4,2.4.4,3.2,0,1.6-.2,2.4-.4,2.8,1.4,1.6,2.4,3.6,2.4,6,0,4.4-3.4,7-8,8,1.2,1,2,2.8,2,4.6v5.2c0,.6.6,1.2,1.4,1,7.4-3,12.6-10.2,12.6-18.6C39.92,8.14,29.72-1.26,17.72.14Z"/>
</svg>