<?xml version="1.0" encoding="UTF-8"?>
<svg id="Layer_1" data-name="Layer 1" xmlns="http://www.w3.org/2000/svg" viewBox="0 0 119.95 68.01">
  <defs>
    <style>
      .cls-1 {
        fill: #abb2bf;
        stroke-width: 0px;
      }
    </style>
  </defs>
  <path class="cls-1" d="m33.92,0C15.18.04,0,15.26,0,34s15.18,33.96,33.92,34c18.75-.04,33.92-15.26,33.92-34S52.67.04,33.92,0Zm53,2c-9.37.04-16.96,14.36-16.96,32s7.59,31.96,16.96,32c9.37-.04,16.96-14.36,16.96-32S96.3,2.04,86.92,2Zm26,2c-2.51-.03-4.82,5.69-6.08,14.98-1.25,9.29-1.25,20.75,0,30.05s3.57,15.01,6.08,14.98c2.51.03,4.82-5.69,6.08-14.98,1.25-9.29,1.25-20.75,0-30.05-1.25-9.29-3.57-15.01-6.08-14.98Z"/>
</svg>