<?xml version="1.0" encoding="UTF-8"?>
<svg id="Layer_1" data-name="Layer 1" xmlns="http://www.w3.org/2000/svg" viewBox="0 0 115.42 104.02">
  <defs>
    <style>
      .cls-1 {
        fill: #2d3138;
      }

      .cls-1, .cls-2, .cls-3, .cls-4, .cls-5, .cls-6, .cls-7, .cls-8 {
        stroke-width: 0px;
      }

      .cls-2 {
        fill: #41444a;
      }

      .cls-3 {
        fill: #32363c;
      }

      .cls-4 {
        fill: #2a2d34;
      }

      .cls-5 {
        fill: #2a2e35;
      }

      .cls-6 {
        fill: #383c42;
      }

      .cls-7 {
        fill: #31353b;
      }

      .cls-8 {
        fill: #2e3239;
      }
    </style>
  </defs>
  <path class="cls-5" d="m110.97.14c-1.88-.29-3.83-.06-5.75-.06h-61.44c-7.04,0-14.08-.05-21.12.02-6.36.06-7.15.85-7.25,6.89-.06,3.2-.1,6.4.02,9.6.08,2.02-.59,2.87-2.68,2.75-2.23-.13-4.48-.09-6.72-.02C1.4,19.49.06,20.75.04,25.55c-.06,24-.06,48,0,72,.01,5.28,1.21,6.35,6.79,6.37,14.4.05,28.8.02,43.2.02,13.12,0,26.24-.16,39.36.05,9.89.16,11.05.03,10.66-10.32-.11-2.81-.74-6.41.68-8.24,1.58-2.03,5.35-.56,8.16-.69,5.34-.26,6.47-1.26,6.48-6.73.05-17.6.02-35.2.02-52.8,0-6.72-.05-13.44.02-20.16.03-3.1-1.8-4.49-4.45-4.89Zm-14.77,97.56c0,2.31-1.24,2.41-3.01,2.41-14.73-.04-29.45-.02-44.18-.02s-28.17-.03-42.26.03c-1.89,0-2.92-.29-2.92-2.51.06-17.61.06-35.22,0-52.83,0-2.31,1.24-2.41,3.01-2.41,28.81.03,57.63.04,86.44,0,1.89,0,2.92.29,2.92,2.51-.06,17.61-.06,35.22,0,52.83Zm-.68-60.06c-1.86,2.49-6.53.82-9.95.86-11.84.12-23.68.05-35.52.05-14.08,0-28.16-.04-42.24.04-2.5.01-4.32,0-4-3.38.35-3.77-1.12-8.63.74-11.11,2.04-2.7,7.13-.87,10.88-.88,25.28-.09,50.56-.06,75.84-.04,4.81,0,4.88.06,4.88,4.29,0,3.48,1.08,7.9-.63,10.18Zm16.09,39.45c.02,2.76-.5,3.85-3.59,3.85-7.99,0-8,.17-8.01-8.02,0-15.38.03-30.77-.02-46.15-.02-6.64-.85-7.43-7.68-7.44-23.08-.03-46.15-.05-69.22.04-2.67.01-4.21-.27-3.9-3.5.36-3.77-1.07-8.68.83-11.07,2.05-2.58,7.16-.78,10.93-.82,11.54-.12,23.07-.04,34.61-.04,14.1,0,28.2.07,42.3-.06,2.86-.03,4.08.68,3.73,3.67-.22,1.9-.03,3.84-.04,5.76q-.04,5.67-6.09,6.02c-.93.05-1.91,0-2.77.29-.39.13-.69,1-.71,1.55s.31,1.14.6,1.65c.11.2.52.32.8.34,2.52.14,6.09-.74,7.31.57,2.1,2.26.8,6.02.81,9.14.09,14.74-.02,29.49.1,44.23Z"/>
  <path class="cls-4" d="m45.53,54.25h-16.17c0-.11,0-.21,0-.32-4.8,0-9.59.05-14.39-.02-2.1-.03-3.56,0-3.49,2.93.21,8.31.2,16.63,0,24.93-.07,2.89,1.32,2.98,3.46,2.96,6.07-.07,12.15.01,18.22-.04,4.11-.03,8.23-.19,12.34-.29,1.35-4.33.62-8.78.59-13.15-.03-5.66.77-11.37-.57-17Zm-6.63,26.67c-3.49-.28-7.02-.06-10.54-.06,0-.11,0-.22,0-.33h-12.32c-1.48-4-.23-8.14-.62-12.2-.09-.95-.02-1.92-.01-2.87q.02-7.65,7.25-7.68c.32,0,.64,0,.96,0,6.02.11,12.05.22,18.07.32,1.38,6.26.22,12.61.67,18.9.19,2.65-.22,4.18-3.46,3.92Z"/>
  <path class="cls-1" d="m86.48,61.61c-10.21.04-20.42.04-30.63,0-1.17,0-1.83.49-1.95,1.48-.16,1.35.16,2.43,1.96,2.41,5.1-.06,10.21-.02,15.32-.02s10.21-.04,15.32.03c1.17.02,1.83-.49,1.95-1.48.16-1.35-.16-2.42-1.96-2.41Z"/>
  <path class="cls-8" d="m81.67,73.24c-4.46-.17-8.92-.08-13.39-.08-4.14,0-8.29.05-12.43-.03-1.18-.02-1.82.5-1.94,1.49-.16,1.35.17,2.42,1.96,2.41,5.74-.05,11.48-.02,17.22-.02,2.87,0,5.74.05,8.61-.06.36-.01.85-.86.99-1.4.24-.96-.11-2.27-1.01-2.31Z"/>
  <path class="cls-7" d="m74,80.92c-2.86-.12-5.73-.06-8.59-.06-3.5,0-7.01-.11-10.5.08-.9.05-1.25,1.34-1.01,2.3.13.54.63,1.4.98,1.41,6.37.08,12.73.13,19.1-.01.89-.02,1.24-1.34,1.01-2.3-.13-.54-.62-1.39-.98-1.4Z"/>
  <path class="cls-3" d="m54.86,57.72c3.18.11,6.43.47,9.52-.05,2.92-.5,6.9,2.5,8.72-2.25-2.4-3.25-5.82-.61-8.21-1.48-3.59,0-6.78-.12-9.95.08-.91.06-1.27,1.31-1.03,2.28.13.54.61,1.41.96,1.43Z"/>
  <path class="cls-6" d="m87,53.97c-2.85-.11-5.7-.11-8.55,0-.98.04-1.55.67-1.55,1.88,0,1.19.55,1.79,1.53,1.9,1.25.14,2.53.03,3.8.03,1.58,0,3.18.1,4.75-.03.99-.08,1.56-.67,1.55-1.88,0-1.19-.55-1.86-1.53-1.9Z"/>
  <path class="cls-2" d="m27.81,7.86c-.5-.38-1.99-.53-2.46.61-.34.81-.3,1.79-.44,2.74.14,1.18.08,2.47.47,3.59.4,1.12,1.97.98,2.45.59,1.56-1.25,1.54-6.32-.03-7.54Z"/>
  <path class="cls-2" d="m36.98,7.83c-3.21-.37-2.19,2.18-2.33,3.85-.08.94-.17,1.93.05,2.82.1.42.89.81,1.44.94.96.24,1.98-.09,2.29-1.04.27-.86.06-1.87.06-2.93-.31-1.23.93-3.36-1.5-3.64Z"/>
  <path class="cls-2" d="m46.62,7.83c-3.21-.41-2.24,2.14-2.36,3.82-.07.94-.16,1.93.05,2.82.1.42.87.84,1.41.97.95.23,2-.06,2.31-1.01.28-.85.06-1.87.06-3.15-.43-.96.97-3.14-1.47-3.45Z"/>
  <path class="cls-2" d="m57.64,8.82c-.23-.94-1.35-1.24-2.3-1-.54.13-1.37.59-1.41.96-.16,1.56-.01,3.15-.08,4.73-.08,1.79,1.07,2.1,2.39,1.94,1.73-.21,1.54-1.61,1.47-2.61,0-1.51.22-2.83-.07-4.02Z"/>
  <path class="cls-2" d="m65.83,7.83c-3.21-.37-2.19,2.18-2.33,3.85-.08.94-.17,1.93.05,2.82.1.42.89.81,1.44.94.96.24,1.98-.09,2.29-1.04.27-.86.06-1.87.06-2.93-.31-1.23.93-3.36-1.5-3.64Z"/>
  <path class="cls-2" d="m74.56,7.81c-1.73.21-1.54,1.61-1.47,2.61,0,1.51-.22,2.82.07,4.02.23.94,1.35,1.24,2.3,1,.54-.13,1.37-.59,1.41-.96.16-1.56.01-3.15.08-4.73.08-1.79-1.07-2.1-2.39-1.94Z"/>
  <path class="cls-2" d="m84.21,7.83c-2.41.29-1.29,2.39-1.48,3.76-.12.93-.24,1.96.03,2.82.3.94,1.32,1.27,2.29,1.04.54-.13,1.33-.53,1.44-.94.22-.89.07-1.88.07-3.1-.25-1.34.9-3.96-2.35-3.56Z"/>
  <path class="cls-2" d="m93.79,7.81c-1.73.22-1.54,1.61-1.47,2.61,0,1.51-.22,2.82.07,4.02.23.94,1.35,1.24,2.3,1,.54-.13,1.37-.59,1.41-.96.16-1.56.01-3.15.08-4.73.08-1.79-1.07-2.1-2.39-1.94Z"/>
  <path class="cls-2" d="m102.01,14.47c.1.42.87.84,1.41.97.95.23,2-.06,2.31-1.01.28-.85.06-1.87.06-2.93-.3-1.24.91-3.36-1.47-3.67-3.21-.42-2.24,2.14-2.36,3.81-.07.94-.16,1.93.05,2.82Z"/>
  <path class="cls-2" d="m10.66,27.09c-1.56,1.25-1.54,6.32.03,7.54.5.38,1.99.53,2.46-.61.34-.81.3-1.79.44-2.74-.14-1.18-.08-2.47-.47-3.59-.4-1.12-1.97-.98-2.45-.59Z"/>
  <path class="cls-2" d="m23.09,29.45c-.02-1.29-.05-2.47-1.91-2.47-1.82,0-1.94,1.12-1.94,2.44,0,1.26-.1,2.54.03,3.78.11.98.68,1.55,1.88,1.55,1.18,0,1.75-.54,1.91-1.52.15-.92.03-1.89.03-2.83,0-.32,0-.63,0-.95Z"/>
  <path class="cls-2" d="m30.33,27.04c-1.73.21-1.54,1.61-1.47,2.61,0,1.51-.22,2.82.07,4.02.23.94,1.35,1.24,2.3,1,.54-.13,1.37-.59,1.41-.96.16-1.56.01-3.15.08-4.73.08-1.79-1.07-2.1-2.39-1.94Z"/>
  <path class="cls-2" d="m41.27,27.09c-.5-.38-1.99-.53-2.46.61-.34.81-.3,1.79-.44,2.74.14,1.18.08,2.47.47,3.59.4,1.12,1.97.98,2.45.59,1.56-1.25,1.54-6.32-.03-7.54Z"/>
  <path class="cls-2" d="m51.94,29.45c-.02-1.29-.05-2.47-1.91-2.47-1.82,0-1.94,1.12-1.94,2.44,0,1.26-.1,2.54.03,3.78.11.98.68,1.55,1.88,1.55,1.18,0,1.75-.54,1.91-1.52.15-.92.03-1.89.03-2.83,0-.32,0-.63,0-.95Z"/>
  <path class="cls-2" d="m60.5,27.09c-.5-.38-1.99-.53-2.46.61-.34.81-.3,1.79-.44,2.74.14,1.18.08,2.47.47,3.59.4,1.12,1.97.98,2.45.59,1.56-1.25,1.54-6.32-.03-7.54Z"/>
  <path class="cls-2" d="m70.12,27.09c-.5-.38-1.99-.53-2.46.61-.34.81-.3,1.79-.44,2.74.14,1.18.08,2.47.47,3.59.4,1.12,1.97.98,2.45.59,1.56-1.25,1.54-6.32-.03-7.54Z"/>
  <path class="cls-2" d="m79.32,27.06c-3.21-.42-2.24,2.14-2.36,3.81-.07.94-.16,1.93.05,2.82.1.42.87.84,1.41.97.95.23,2-.06,2.31-1.01.28-.85.06-1.87.06-2.93-.3-1.24.91-3.36-1.47-3.67Z"/>
  <path class="cls-2" d="m88.02,27.04c-1.73.21-1.54,1.61-1.47,2.61,0,1.51-.22,2.82.07,4.02.23.94,1.35,1.24,2.3,1,.54-.13,1.37-.59,1.41-.96.16-1.56.01-3.15.08-4.73.08-1.79-1.07-2.1-2.39-1.94Z"/>
</svg>