<?xml version="1.0" encoding="UTF-8"?>
<svg id="Layer_1" data-name="Layer 1" xmlns="http://www.w3.org/2000/svg" viewBox="0 0 100 100">
  <defs>
    <style>
      .cls-1 {
        fill: #818181;
        stroke-width: 0px;
      }
    </style>
  </defs>
  <path class="cls-1" d="m51.19,65.33c10.87-10.92,21.32-21.42,31.78-31.92,1.29-1.3,2.6-2.58,3.88-3.89,1.97-2.03,4.15-3.92,6.8-1.36,2.92,2.81.79,5.07-1.34,7.15-.12.12-.24.23-.35.35-12.13,12.13-24.33,24.18-36.34,36.43-3.27,3.33-5.72,3.59-9.11.12-12.11-12.38-24.43-24.54-36.68-36.79-2.06-2.06-4.43-4.24-1.57-7.14,2.86-2.89,5.06-.6,7.14,1.48,10.59,10.6,21.19,21.2,31.8,31.78,1.16,1.16,2.38,2.25,4,3.78Z"/>
</svg>