<?xml version="1.0" encoding="UTF-8"?>
<svg id="Layer_1" data-name="Layer 1" xmlns="http://www.w3.org/2000/svg" viewBox="0 0 114 126">
  <defs>
    <style>
      .cls-1 {
        fill: #1e1d1d;
      }

      .cls-1, .cls-2, .cls-3, .cls-4 {
        fill-rule: evenodd;
        stroke-width: 0px;
      }

      .cls-2 {
        fill: #494949
      }

      .cls-3 {
        fill: #fff;
      }

      .cls-4 {
        fill: #000000
      }
    </style>
  </defs>
  <path class="cls-4" d="m53.71.86c2.04-1.14,4.54-1.14,6.58,0,10.06,5.65,40.35,22.65,50.42,28.3,2.04,1.14,3.29,3.25,3.29,5.54v56.6c0,2.29-1.25,4.4-3.29,5.54-10.06,5.65-40.35,22.65-50.42,28.3-2.04,1.14-4.54,1.14-6.58,0-10.06-5.65-40.35-22.65-50.42-28.3-2.03-1.14-3.29-3.25-3.29-5.54v-56.6c0-2.29,1.25-4.4,3.29-5.54C13.35,23.51,43.65,6.51,53.71.86Z"/>
  <path class="cls-1" d="m.91,94.21c-.8-1.07-.91-2.08-.91-3.45v-56.28c0-2.27,1.25-4.37,3.28-5.51C13.31,23.36,43.5,6.46,53.53.84c2.03-1.14,4.78-1.11,6.81.02,10.03,5.62,40.11,22.38,50.14,27.99.81.46,1.43,1.01,1.98,1.73L.91,94.21Z"/>
  <path class="cls-3" d="m57,21c23.18,0,42,18.82,42,42s-18.82,42-42,42S15,86.18,15,63,33.82,21,57,21Zm0,21c11.59,0,21,9.41,21,21s-9.41,21-21,21-21-9.41-21-21,9.41-21,21-21Z"/>
  <path class="cls-2" d="m112.46,30.62c1.55,1.45,1.52,3.63,1.52,5.35,0,11.39-.1,43.77.03,55.15.01,1.19-.38,2.44-.97,3.38l-57.25-31.5,56.68-32.39Z"/>
  <path class="cls-3" d="m87,51h3v24h-3v-24Zm9,0h3v24h-3v-24Z"/>
  <path class="cls-3" d="m81,66h24v3h-24v-3Zm0-9h24v3h-24v-3Z"/>
</svg>