<?xml version="1.0" encoding="UTF-8"?>
<svg id="Layer_1" data-name="Layer 1" xmlns="http://www.w3.org/2000/svg" viewBox="0 0 96 96">
  <defs>
    <style>
      .cls-1 {
        stroke-width: 0px;
      }
    </style>
  </defs>
  <path class="cls-1" d="m49.25,17c9.16,0,18.33.06,27.49-.02,5.93-.05,12.26,5.84,12.26,12.15,0,13.16-.13,26.33.06,39.49.09,6-6.5,12.52-12.57,12.45-18.33-.2-36.66-.2-54.98,0-6.07.07-12.66-6.46-12.57-12.45.19-13.16.06-26.33.06-39.49,0-6.31,6.33-12.21,12.26-12.15,9.33.08,18.66.02,27.99.02Zm-.39,58c8.65,0,17.3.02,25.95,0,4.96-.02,8.16-3.1,8.18-7.91.04-8.65.01-17.3.01-25.95,0-.5.1-1.02-.03-1.49-.12-.46-.41-.72-.95-.21-.68.64-1.39,1.18-2.29,1.65-8.09,4.19-16.09,8.57-24.09,12.93-1.36.74-2.83,1.34-4.1,2.11-1.79,1.1-3.07.88-4.86.17-2.08-.83-3.73-2.24-5.64-3.27-8.15-4.4-16.36-8.68-24.52-13.06-.79-.42-1.53-1.81-1.53.39,0,8.82-.02,17.63,0,26.45.02,5.16,3.12,8.18,8.4,8.19,8.48.02,16.97,0,25.45,0Zm.17-52c-8.81,0-17.62-.02-26.43.01-3.2.01-6.76,2.65-7.6,5.49-.54,1.82.15,3.55,1.87,4.49,7.05,3.85,14.12,7.65,21.14,11.55,2.44,1.35,5.05,2.3,7.32,4.1,1.74,1.38,4.1,2.24,6.54.45.59-.43,1.82-.79,2.44-1.2,6.08-4.05,12.73-7.07,19.07-10.64,2.54-1.44,5.23-2.66,7.7-4.26,2.05-1.33,2.48-2.58,1.62-4.81-1.25-3.24-4.08-5.18-7.73-5.19-8.64-.02-17.29,0-25.93,0Z"/>
</svg>