<?xml version="1.0" encoding="UTF-8"?>
<svg id="Layer_1" data-name="Layer 1" xmlns="http://www.w3.org/2000/svg" viewBox="0 0 79.84 77.56">
  <defs>
    <style>
      .cls-1 {
        fill: #000000;
        stroke-width: 0px;
      }
    </style>
  </defs>
  <path class="cls-1" d="m35.44.28C17.04,2.28,2.24,17.08.24,35.08c-2,18.8,8.8,35.6,25.2,42,1.2.4,2.4-.4,2.4-2v-6.4s-1.6.4-3.6.4c-5.6,0-8-4.8-8.4-7.6-.4-1.6-1.2-2.8-2.4-4-1.2-.4-1.6-.4-1.6-.8,0-.8,1.2-.8,1.6-.8,2.4,0,4.4,2.8,5.2,4,2,3.2,4.4,4,5.6,4,1.6,0,2.8-.4,3.6-.8.4-2.8,1.6-5.6,4-7.2-9.2-2-16-7.2-16-16,0-4.4,2-8.8,4.8-12-.4-.8-.8-2.8-.8-5.6,0-1.6,0-4,1.2-6.4,0,0,5.6,0,11.2,5.2,2-.8,4.8-1.2,7.6-1.2s5.6.4,8,1.2c5.2-5.2,11.2-5.2,11.2-5.2.8,2.4.8,4.8.8,6.4,0,3.2-.4,4.8-.8,5.6,2.8,3.2,4.8,7.2,4.8,12,0,8.8-6.8,14-16,16,2.4,2,4,5.6,4,9.2v10.4c0,1.2,1.2,2.4,2.8,2,14.8-6,25.2-20.4,25.2-37.2C79.84,16.28,59.44-2.52,35.44.28Z"/>
</svg>