<?xml version="1.0" encoding="UTF-8"?>
<svg id="Layer_1" data-name="Layer 1" xmlns="http://www.w3.org/2000/svg" viewBox="0 0 104 104">
  <defs>
    <style>
      .cls-1 {
        fill: #888;
        stroke-width: 0px;
      }
    </style>
  </defs>
  <path class="cls-1" d="m30.19,0C13.56,0,0,13.56,0,30.19v43.62c0,16.62,13.56,30.19,30.19,30.19h43.62c16.62,0,30.19-13.56,30.19-30.19V30.19C104,13.56,90.44,0,73.81,0H30.19Zm0,8h43.62c12.3,0,22.19,9.87,22.19,22.19v43.62c0,12.3-9.87,22.19-22.19,22.19H30.19c-12.3,0-22.19-9.87-22.19-22.19V30.19c0-12.3,9.87-22.19,22.19-22.19h0Zm51.81,8c-3.31,0-6,2.69-6,6s2.69,6,6,6,6-2.69,6-6-2.69-6-6-6Zm-30,8c-15.42,0-28,12.58-28,28s12.58,28,28,28,28-12.58,28-28-12.58-28-28-28Zm0,8c11.09,0,20,8.91,20,20s-8.91,20-20,20-20-8.91-20-20,8.91-20,20-20Z"/>
</svg>