<?xml version="1.0" encoding="UTF-8"?>
<svg id="Layer_1" data-name="Layer 1" xmlns="http://www.w3.org/2000/svg" viewBox="0 0 133.96 126.08">
  <defs>
    <style>
      .cls-1 {
        stroke-width: 0px;
      }
    </style>
  </defs>
  <path class="cls-1" d="m133.35,107.65c-.58-2.44-1.44-4.85-2.76-7.04-2.61-4.4-6.6-7.75-10.78-10.47-4.23-2.7-8.75-4.87-13.37-6.66-8.86-3.42-8.43-3.31-14.41-5.44-13.25-4.72-20.6-11.74-21.07-19.36-.22-3.69,3.38-15.7,18.22-12.85,3.53.68,6.86,1.63,10.15,3.11,3.03,1.37,11.86,5.65,14.96,11.75h0c.23,2.69,1.18,3.73,4.97,5.52,2.85,1.34,5.72,2.8,5.98,6.12.02.18.15.33.39.36.16,0,.3-.09.36-.24.55-1.32,2.75-2.97,4.38-2.52.19.05.36-.03.44-.18.09-.16.06-.35-.06-.47l-2.59-2.56c-.93-.93-1.95-2.16-2.82-3.75-.23-.43-.44-.85-.61-1.25-.11-.28-.23-.56-.34-.84-2.17-5.68-6.22-11.77-10.39-15.72-2.27-2.18-4.76-4.1-7.42-5.74-2.67-1.61-5.46-3.05-8.5-3.91l-.22.77c2.84.98,5.5,2.55,7.99,4.26,2.48,1.74,4.78,3.73,6.82,5.94,2.91,3.1,5.21,6.69,6.85,10.54l-5.98-7.43.17,2.57-4.9-5.52.3,2.59-4.76-3.84.41,1.75c-1.07-.71-10.57-4.49-15.32-6.27-4.74-1.78-14.11-10.57-11.41-21.7,0,0-4.43-1.72-7.6-2.89-3.13-1.13-6.27-2.15-9.42-3.14-6.3-1.97-12.64-3.77-19-5.45-6.37-1.67-12.78-3.19-19.23-4.52C16.31,1.84,9.82.66,3.26,0l-.12,1c6.46.99,12.83,2.5,19.16,4.15,6.32,1.66,12.61,3.5,18.84,5.49,6.23,1.99,12.42,4.11,18.53,6.38,3.05,1.14,6.1,2.31,9.08,3.56.63.26,1.28.54,1.92.82-3.67-.72-7.34-1.3-11.02-1.77-6.63-.84-13.27-1.37-19.92-1.67-6.64-.3-13.29-.35-19.93-.1-6.63.26-13.27.78-19.81,1.9l.13.91c6.54-.67,13.12-.74,19.69-.55,6.57.2,13.12.69,19.64,1.43,6.52.74,13,1.7,19.41,2.96,3.95.78,7.87,1.69,11.71,2.76-3.03-.3-6.05-.38-9.04-.34-5.93.09-11.78.74-17.54,1.72-5.77.99-11.45,2.32-17.02,4.04-5.55,1.74-11.04,3.8-16.08,6.75l.35.62c5.16-2.48,10.7-4.07,16.28-5.34,5.59-1.24,11.25-2.09,16.93-2.6,5.67-.5,11.38-.67,16.99-.3,4.99.33,9.95,1.09,14.49,2.55h0c.2,1.33,1.1,4.04,1.53,5.39h0c-12.76,5.87-14.38,16.43-13.34,22.09,1.23,6.64,6.03,11.71,11.71,14.98,4.7,2.67,9.5,4.38,14.18,6.14,4.66,1.75,9.28,3.43,13.4,5.75,4.06,2.24,7.43,5.7,10.17,9.63,5.51,7.91,7.72,17.89,8.38,27.73l1.1-.03c.02-9.97-1.41-20.41-6.76-29.44-1.76-2.96-3.94-5.76-6.51-8.2,2.98,1.15,5.88,2.45,8.66,4,4.12,2.34,8,5.25,10.64,9.15,1.33,1.94,2.27,4.12,2.95,6.4.61,2.3.88,4.69.99,7.11h.94c.03-2.47-.1-4.96-.6-7.43h0Z"/>
</svg>