<?xml version="1.0" encoding="UTF-8"?>
<svg id="Layer_1" data-name="Layer 1" xmlns="http://www.w3.org/2000/svg" viewBox="0 0 84 84">
  <defs>
    <style>
      .cls-1 {
        stroke-width: 0px;
      }
    </style>
  </defs>
  <path class="cls-1" d="m74,0H10C4.48,0,0,4.48,0,10v64c0,5.52,4.48,10,10,10h64c5.52,0,10-4.48,10-10V10c0-5.52-4.48-10-10-10ZM26,32v38h-12v-38h12Zm-12-11.06c0-2.8,2.4-4.94,6-4.94s5.86,2.14,6,4.94c0,2.8-2.24,5.06-6,5.06s-6-2.26-6-5.06Zm56,49.06h-12v-20c0-4-2-8-7-8.08h-.16c-4.84,0-6.84,4.12-6.84,8.08v20h-12v-38h12v5.12s3.86-5.12,11.62-5.12,14.38,5.46,14.38,16.52v21.48Z"/>
</svg>