<?xml version="1.0" encoding="UTF-8"?>
<svg id="Layer_1" data-name="Layer 1" xmlns="http://www.w3.org/2000/svg" viewBox="0 0 87.99 88">
  <defs>
    <style>
      .cls-1 {
        stroke-width: 0px;
      }
    </style>
  </defs>
  <path class="cls-1" d="m8.49,0C4.87,0,2,1.92.65,5.25.22,6.28,0,7.37,0,8.49c0,3.72,2.4,6.75,3.84,8.55.25.32.48.6.72.94l.65.86c.64.84,1.38,1.8,1.61,2.28.08.22.18.61.31,1.09.63,2.26,1.8,6.46,3.66,9.66.75,1.29,1.81,2.91,2.57,4.05-.51,2.54-1.37,7.23-1.37,10.08,0,5,1.04,9.02,3.3,12.69.84,1.31,3.39,5.31,7.7,5.31,1.53,0,4.08-.6,4.77-4.4,3.06,3.95,8.23,8.9,16.23,12.4,0,0-15-17.5-17.63-28.41,0,0-2.87,2.91-5.3,8.84-.73-1.83-1.06-3.9-1.06-6.44s1.1-8.11,1.53-10.06l.38-1.7-.98-1.43s-2.03-2.94-3.21-4.96c-1.34-2.3-2.34-5.87-2.87-7.78-.26-.93-.46-1.61-.66-2.06-.7-1.52-1.73-2.85-2.62-4.02l-.5-.66c-.25-.36-.58-.79-.96-1.26-.73-.92-2.09-2.63-2.05-3.73l.45-.31v-.02c3.19,0,7.28,2.26,8.83,3.11.5.28.87.47,1.07.55l.7.3,1.37.05c1.79.04,7.22.17,11.06,1.7,7,2.8,10.88,5.6,14.81,10.72,9.3,12.09,12.73,27.74,12.76,27.9l.5,2.26,2.19.71c.08.03,6.2,2.07,11.91,7.42-7.18,1.78-9.68,5.27-9.68,5.27,0,0,1.9,3.71,11,9.5,5.5,3.5,8.5,6,13,10.5,0,0-4.5-10-10.78-17.97,4.78-1.53,10.66-2.33,10.66-2.33l-3.64-5.05c-5.99-8.31-14.03-12.5-17.85-14.13-1.33-5.06-5.34-18.06-13.72-28.96-4.8-6.24-9.9-9.97-18.19-13.28-4.91-1.96-10.81-2.19-13.44-2.26C18.74,2.76,13.63,0,8.49,0Zm16.25,16s-1.75,0-3.75.5l5.5,7.49c1.5-1.99,1.5-4.32,1.5-4.32,0,0-1-2.67-3.25-3.67Z"/>
</svg>