<?xml version="1.0" encoding="UTF-8"?>
<svg id="Layer_1" data-name="Layer 1" xmlns="http://www.w3.org/2000/svg" viewBox="0 0 114 130.66">
  <defs>
    <style>
      .cls-1 {
        fill: #fff;
      }

      .cls-1, .cls-2 {
        stroke-width: 0px;
      }

      .cls-2 {
        fill: #000000;
      }
    </style>
  </defs>
  <polygon class="cls-2" points="114 97.99 114 32.67 57 0 0 32.67 0 97.99 57 130.66 114 97.99"/>
  <path class="cls-1" d="m82.5,31.66c-4.14,0-7.5,3.36-7.5,7.5v33.83l-33.05-36.97-.39-.46c-3.73-4.09-8-3.9-10.06-3.9-4.14,0-7.5,3.36-7.5,7.5v51c0,4.14,3.36,7.5,7.5,7.5s7.5-3.36,7.5-7.5v-34.08l33.83,37.88.33.43c3.7,3.67,8.72,3.27,9.34,3.27,4.14,0,7.5-3.36,7.5-7.5v-51c0-4.14-3.36-7.5-7.5-7.5Z"/>
</svg>