<?xml version="1.0" encoding="UTF-8"?>
<svg id="Layer_1" data-name="Layer 1" xmlns="http://www.w3.org/2000/svg" viewBox="0 0 72 78">
  <defs>
    <style>
      .cls-1 {
        stroke-width: 0px;
      }
    </style>
  </defs>
  <path class="cls-1" d="m35.98,0c-1.09,0-2.19.27-3.13.81L3.12,17.97c-1.92,1.11-3.12,3.21-3.12,5.43v31.14c0,2.25,1.2,4.32,3.12,5.43l7.8,4.5c3.78,1.86,5.13,1.86,6.84,1.86,5.61,0,8.82-3.39,8.82-9.27V24.93c0-.48-.39-.87-.87-.87h-3.75c-.51,0-.87.39-.87.87v32.1c0,2.64-2.73,5.22-7.14,3.03l-8.16-4.71c-.3-.15-.48-.48-.48-.81v-31.11c0-.36.18-.66.48-.84L35.52,5.43c.27-.18.63-.18.93,0l29.73,17.16c.3.18.48.48.48.81v31.14c0,.33-.18.66-.45.81l-29.76,17.19c-.27.15-.66.15-.93,0l-7.65-4.53c-.21-.15-.5-.18-.71-.06-2.13,1.2-2.52,1.35-4.5,2.04-.48.15-1.23.45.27,1.29l9.93,5.88c.96.54,2.04.84,3.12.84s2.19-.3,3.15-.84l29.77-17.19c1.92-1.11,3.12-3.18,3.12-5.43v-31.11c0-2.25-1.2-4.32-3.12-5.43L39.12.81c-.94-.54-2.04-.81-3.13-.81Zm8,24.02c-8.49,0-13.56,3.6-13.56,9.6,0,6.51,5.04,8.31,13.2,9.12,9.75.96,10.5,2.4,10.5,4.32,0,3.3-2.67,4.71-8.94,4.71-7.89,0-9.63-1.98-10.2-5.88-.06-.42-.42-.72-.84-.72h-3.87c-.48,0-.84.39-.84.84,0,5.01,2.73,10.97,15.75,10.97,9.42,0,14.82-3.72,14.82-10.2s-4.35-8.13-13.47-9.36c-9.27-1.2-10.2-1.83-10.2-3.99,0-1.8.81-4.17,7.65-4.17,6.09,0,8.37,1.32,9.3,5.43.09.39.42.69.84.69h3.87c.24,0,.45-.12.63-.3.15-.15.24-.39.21-.66-.6-7.08-5.31-10.41-14.85-10.41Z"/>
</svg>