<?xml version="1.0" encoding="UTF-8"?>
<svg id="Layer_1" data-name="Layer 1" xmlns="http://www.w3.org/2000/svg" viewBox="0 0 114 114">
  <defs>
    <style>
      .cls-1 {
        fill: #00000;
      }

      .cls-1, .cls-2 {
        stroke-width: 0px;
      }

      .cls-2 {
        fill: #000000;
      }
    </style>
  </defs>
  <path class="cls-2" d="m58.45,0c-4.67.02-7.9.43-11.81,1.1-11.54,2.01-13.65,6.23-13.65,14.01v11.89h27v6H18.92c-7.91,0-14.83,3.73-17.02,12.66-2.48,10.25-2.59,16.67,0,27.38,1.96,7.98,6.29,13.97,14.2,13.97h10.9v-15.31c0-8.9,8.06-17.69,17.29-17.69h21.71c7.57,0,15-5.59,15-13.13V15.11c0-7.32-5.28-12.79-12.65-14.02.18-.02-5.27-1.11-9.89-1.1Zm-14.95,12c2.46,0,4.5,2.03,4.5,4.51s-2.04,4.49-4.5,4.49-4.5-1.99-4.5-4.49,1.99-4.51,4.5-4.51Z"/>
  <path class="cls-1" d="m55.55,114c4.67-.02,7.9-.43,11.81-1.1,11.54-2.01,13.65-6.23,13.65-14.01v-11.89h-27v-6h41.08c7.91,0,14.83-3.73,17.02-12.66,2.48-10.25,2.59-16.67,0-27.38-1.97-7.98-6.3-13.97-14.21-13.97h-10.9v15.31c0,8.9-8.06,17.69-17.29,17.69h-21.71c-7.57,0-15,5.59-15,13.13v25.76c0,7.32,5.28,12.79,12.65,14.02-.18.02,5.27,1.11,9.89,1.1Zm14.96-12c-2.46,0-4.5-2.03-4.5-4.51s2.04-4.49,4.5-4.49,4.5,1.99,4.5,4.49-1.99,4.51-4.5,4.51Z"/>
</svg>