<?xml version="1.0" encoding="UTF-8"?>
<svg id="Layer_1" data-name="Layer 1" xmlns="http://www.w3.org/2000/svg" viewBox="0 0 96 86.55">
  <defs>
    <style>
      .cls-1 {
        fill: #04abd8;
        stroke-width: 0px;
      }
    </style>
  </defs>
  <path class="cls-1" d="m30.72,0c-2.44,0-4.71.55-6.72,1.7-6.28,3.62-8.66,12.45-7.4,23.45C6.45,29.55,0,36.03,0,43.27s6.45,13.72,16.6,18.12c-1.27,10.99,1.12,19.82,7.4,23.45,2,1.16,4.27,1.7,6.72,1.7,5.21,0,11.23-2.62,17.28-7.1,6.05,4.49,12.08,7.1,17.29,7.1,2.44,0,4.71-.55,6.72-1.7,6.28-3.62,8.66-12.45,7.4-23.45,10.15-4.4,16.59-10.88,16.59-18.12s-6.45-13.72-16.6-18.12c1.27-10.99-1.12-19.82-7.4-23.45-2-1.16-4.27-1.7-6.72-1.7-5.21,0-11.23,2.62-17.28,7.1C41.95,2.62,35.93,0,30.72,0h0Zm0,7c3.13,0,7.26,1.66,11.75,4.74-2.64,2.49-5.22,5.32-7.71,8.48-4.03.58-7.84,1.42-11.36,2.48-.02-.24-.06-.5-.08-.74-.43-7.12,1.14-12.43,4.18-14.19.9-.52,1.95-.77,3.22-.77Zm34.56,0c1.26,0,2.32.25,3.22.77,3.04,1.76,4.61,7.07,4.18,14.19-.01.24-.06.5-.08.74-3.53-1.06-7.33-1.9-11.37-2.48-2.49-3.15-5.06-5.99-7.7-8.48,4.49-3.08,8.63-4.74,11.75-4.74h0Zm-17.28,9.19c1.08.99,2.16,2.03,3.25,3.17-1.08-.04-2.15-.09-3.25-.09s-2.17.05-3.24.09c1.09-1.14,2.16-2.19,3.24-3.17Zm0,10.09c3.31,0,6.46.19,9.44.51,1.82,2.47,3.61,5.08,5.29,7.99,1.61,2.79,3.03,5.64,4.29,8.5-1.26,2.86-2.68,5.72-4.29,8.51-1.67,2.9-3.46,5.5-5.27,7.96-3.09.34-6.25.53-9.45.53s-6.46-.19-9.44-.51c-1.82-2.47-3.61-5.08-5.29-7.98-1.61-2.79-3.03-5.65-4.29-8.51,1.26-2.86,2.68-5.71,4.29-8.5,1.67-2.9,3.46-5.5,5.27-7.97,3.09-.34,6.25-.53,9.45-.53h0Zm18.98,2.16c1.59.38,3.11.8,4.55,1.26-.32,1.47-.72,2.96-1.17,4.48-.51-.97-1.01-1.93-1.57-2.9-.57-.99-1.21-1.88-1.8-2.84Zm-37.98,0c-.59.95-1.23,1.84-1.8,2.83-.56.96-1.06,1.93-1.57,2.9-.45-1.52-.85-3.01-1.18-4.48,1.46-.46,2.98-.87,4.55-1.24Zm-11.13,3.81c.84,3.56,2.01,7.25,3.52,11.01-1.5,3.75-2.66,7.43-3.51,10.98-6.97-3.36-10.88-7.55-10.88-10.98s3.81-7.52,10.19-10.71c.22-.11.46-.2.69-.3h0Zm60.24.04c6.97,3.36,10.88,7.55,10.88,10.98s-3.81,7.52-10.19,10.71c-.22.11-.46.2-.69.3-.84-3.56-2-7.25-3.51-11.02,1.5-3.75,2.66-7.43,3.5-10.98h0Zm-30.12,2.98c-4.42,0-8,3.58-8,8s3.58,8,8,8,8-3.58,8-8-3.58-8-8-8Zm-22.36,17.1c.51.97,1.02,1.93,1.58,2.9.57.99,1.2,1.88,1.8,2.84-1.59-.38-3.11-.8-4.55-1.26.33-1.47.72-2.96,1.17-4.48Zm44.72,0c.45,1.51.85,3.01,1.18,4.48-1.46.46-2.98.87-4.55,1.24.59-.95,1.23-1.84,1.8-2.83.56-.96,1.06-1.93,1.57-2.89Zm-46.96,11.47c3.53,1.06,7.33,1.9,11.37,2.48,2.49,3.15,5.06,5.99,7.7,8.48-4.49,3.08-8.62,4.74-11.75,4.74-1.26,0-2.32-.25-3.22-.77-3.04-1.76-4.61-7.06-4.18-14.18.01-.24.06-.5.08-.75Zm49.2,0c.02.25.06.51.08.75.43,7.12-1.14,12.42-4.18,14.18-.9.52-1.95.77-3.22.77-3.13,0-7.26-1.66-11.75-4.74,2.64-2.49,5.22-5.33,7.71-8.48,4.03-.58,7.84-1.42,11.36-2.48h0Zm-27.85,3.34c1.08.04,2.15.09,3.25.09s2.17-.05,3.25-.09c-1.09,1.14-2.17,2.18-3.25,3.17-1.08-.99-2.16-2.03-3.25-3.17Z"/>
</svg>