<?xml version="1.0" encoding="UTF-8"?>
<svg id="Layer_1" data-name="Layer 1" xmlns="http://www.w3.org/2000/svg" viewBox="0 0 96 96">
  <defs>
    <style>
      .cls-1 {
        stroke-width: 0px;
      }
    </style>
  </defs>
  <path class="cls-1" d="m49.01,34c-13.48,0-26.95,0-40.43,0-2.54,0-2.56-.03-2.57-2.7-.02-4.83-.03-9.65,0-14.48.02-3.41,3.39-6.8,6.79-6.81,24.13-.02,48.25-.02,72.38,0,3.41,0,6.78,3.39,6.81,6.79.03,4.83.02,9.65,0,14.48,0,2.7-.03,2.72-3.05,2.72-13.31,0-26.62,0-39.93,0Zm-17.76-14c-3.5,0-7-.05-10.5.02-2.06.04-2.8.98-2.76,3.1.05,2.02.84,2.85,3,2.86,6.66.04,13.33.04,19.99,0,2.16-.01,2.96-.84,3.01-2.86.05-2.29-.71-3.07-3.25-3.12-3.17-.05-6.33-.01-9.5-.01Zm30.75,3.08c.06.93,2.42,2.89,3.5,2.92,1.67.03,2.63-1.25,2.5-3.33-.11-1.74-1.17-2.8-2.67-2.67-1.14.1-3.39,2.19-3.33,3.08Zm15.55-3.08c-1.06,0-3.45,1.93-3.55,2.86-.13,1.13,2.44,3.27,3.77,3.14,1.48-.14,2.26-1.23,2.23-3.11-.03-1.82-.94-2.9-2.45-2.89Z"/>
  <path class="cls-1" d="m49.27,64c13.31,0,26.62,0,39.93,0,2.77,0,2.79.03,2.79,2.98.01,4.83-.14,9.66.07,14.47.09,2-1,2.99-2.16,4.13-1.26,1.23-2.27,2.5-4.49,2.49-24.29-.11-48.59-.1-72.88,0-1.98,0-2.99-.99-4.12-2.15-1.23-1.26-2.59-2.26-2.49-4.49.23-5.15.12-10.31.04-15.47-.02-1.44.27-2.01,1.87-1.99,5.82.1,11.65.04,17.47.04h23.96Zm-18.44,14c3.33,0,6.67.04,10-.01,2.44-.04,3.26-.91,3.17-3.19-.07-1.96-.89-2.77-3.09-2.78-6.66-.04-13.33-.04-19.99,0-2.15.01-2.9.87-2.92,2.94-.02,2.1.73,2.98,2.84,3.02,3.33.07,6.66.02,10,.02Zm34.86-6c-1.05-.06-3.44,1.7-3.7,2.72-.26,1.03,2.27,3.32,3.63,3.28,1.27-.03,2.23-1.04,2.37-2.47.19-2.06-.71-3.44-2.3-3.53Zm14.3,3c0-1.82-.87-2.94-2.34-3-1.05-.04-3.44,1.76-3.66,2.76-.23,1.06,2.31,3.3,3.67,3.24,1.47-.06,2.33-1.18,2.33-3Z"/>
  <path class="cls-1" d="m49.01,58c-13.49,0-26.98,0-40.47,0-2.49,0-2.52-.03-2.53-2.25-.02-4.5-.02-8.99,0-13.49.01-2.23.04-2.23,2.52-2.26.67,0,1.33,0,2,0,25.65,0,51.29,0,76.94,0q4.54,0,4.54,4.75c0,2.83.02,5.66,0,8.49-.01,1.48.44,3.74-.29,4.25-1.15.79-3.11.5-4.73.5-12.66.03-25.31.01-37.97.01Zm-18.38-6c3.67,0,7.33.06,11-.03,1.64-.04,2.38-1.1,2.38-2.97,0-1.88-.74-2.96-2.38-2.97-7-.06-14-.05-20.99,0-1.72.01-2.55.99-2.63,2.73-.1,2.11.69,3.18,2.63,3.23,3.33.08,6.66.02,10,.02Zm34.93-6c-1.06,0-3.45,1.93-3.55,2.86-.13,1.13,2.44,3.27,3.77,3.14,1.48-.14,2.26-1.23,2.23-3.11-.03-1.82-.94-2.9-2.45-2.89Zm12.14,0c-1.05-.06-3.44,1.7-3.7,2.72-.26,1.03,2.27,3.32,3.63,3.28,1.27-.03,2.23-1.04,2.37-2.47.19-2.06-.71-3.44-2.3-3.53Z"/>
</svg>