<?xml version="1.0" encoding="UTF-8"?>
<svg id="Layer_1" data-name="Layer 1" xmlns="http://www.w3.org/2000/svg" viewBox="0 0 28.5 34.5">
  <defs>
    <style>
      .cls-1 {
        stroke-width: 0px;
      }
    </style>
  </defs>
  <path class="cls-1" d="m25.53,3.91c.09,1.58.15,2.75.23,4.21-.87.23-1.61.6-2.36.61-5.33.05-10.65-.01-15.98.05-1.82.02-2.99-.66-2.5-2.49.25-.93,1.47-2.25,2.29-2.27,6.02-.19,12.04-.1,18.32-.1Z"/>
  <path class="cls-1" d="m5.26,20.98c-.98-3.14-.55-4.85,3.13-4.64,3.75.21,7.51.03,11.27.05,3.82.02,3.88.12,3.15,4.59H5.26Z"/>
  <path class="cls-1" d="m5.2,32.79c-.96-3.24-.1-4.63,3.18-4.51,4.6.17,9.23.18,13.83,0,3.3-.13,4.11,1.29,3.2,4.51H5.2Z"/>
</svg>