<?xml version="1.0" encoding="UTF-8"?>
<svg id="Layer_1" data-name="Layer 1" xmlns="http://www.w3.org/2000/svg" viewBox="0 0 30.75 35.25">
  <defs>
    <style>
      .cls-1 {
        stroke-width: 0px;
      }
    </style>
  </defs>
  <path class="cls-1" d="m7.91,19.91c5.44-1.87,10.25-3.44,14.98-5.24.55-.21.85-1.64.9-2.52.13-2.44-.15-4.92.18-7.33.12-.88,1.49-1.58,2.29-2.36.71.73,2.04,1.46,2.05,2.21.14,8.79.09,17.58.09,26.67h-4.6v-11.91c-5.3,1.78-9.91,3.24-14.42,4.95-.71.27-1.24,1.64-1.4,2.58-.23,1.39-.06,2.86-.06,4.48H3.34c0-2.73,0-5.37,0-8.01,0-6.12-.08-12.24.11-18.36.03-.89,1.19-2.25,2.08-2.5,1.95-.56,2.42.84,2.4,2.58-.05,4.63-.02,9.25-.02,14.77Z"/>
</svg>