<?xml version="1.0" encoding="UTF-8"?>
<svg id="Layer_1" data-name="Layer 1" xmlns="http://www.w3.org/2000/svg" viewBox="0 0 159.81 139.15">
  <defs>
    <style>
      .cls-1 {
        fill: #fff;
      }

      .cls-1, .cls-2 {
        stroke-width: 0px;
      }

      .cls-2 {
        fill: #282c33;
      }
    </style>
  </defs>
  <path class="cls-1" d="m42.26,4L4.61,69.57l37.65,65.57h75.28l37.65-65.57L117.55,4H42.26Zm60.28,104.99h-45.28l-22.63-39.42,22.63-39.42h45.28l22.63,39.42-22.63,39.42Z"/>
  <path class="cls-2" d="m39.95,0L0,69.57l39.95,69.57h79.91l39.95-69.57L119.86,0H39.95Zm77.6,135.15H42.26L4.61,69.57,42.26,4h75.28l37.65,65.57-37.65,65.57Z"/>
  <path class="cls-2" d="m57.26,30.16l-22.63,39.42,22.63,39.42h45.28l22.63-39.42-22.63-39.42h-45.28Zm42.97,74.83h-40.65l-20.33-35.42,20.33-35.42h40.65l20.33,35.42-20.33,35.42Z"/>
</svg>