<?xml version="1.0" encoding="UTF-8"?>
<svg id="Layer_1" data-name="Layer 1" xmlns="http://www.w3.org/2000/svg" viewBox="0 0 39.75 69">
  <defs>
    <style>
      .cls-1 {
        stroke-width: 0px;
      }
    </style>
  </defs>
  <path class="cls-1" d="m6.91,36.67v14.35H2.26c0-4.05,0-8.08,0-12.11,0-4.57.13-9.14-.05-13.71-.12-3.11,1.05-4.06,4.05-3.15,1,8.25,7.55,13.34,11.56,21.05,2.83-4.16,5.39-7.53,7.52-11.17,1.57-2.67,2.48-5.73,3.88-8.5.38-.75,1.51-1.57,2.28-1.54.74.02,2.08,1.07,2.09,1.69.14,9.1.09,18.2.09,27.48h-4.53v-14.32c-.37-.13-.74-.26-1.11-.39-2.09,3.08-4.16,6.17-6.26,9.25-2.64,3.87-4.95,3.9-7.55.1-2.12-3.1-4.22-6.22-6.32-9.34-.34.1-.67.21-1.01.31Z"/>
</svg>