<?xml version="1.0" encoding="UTF-8"?>
<svg id="Layer_1" data-name="Layer 1" xmlns="http://www.w3.org/2000/svg" viewBox="0 0 30 33.75">
  <defs>
    <style>
      .cls-1 {
        stroke-width: 0px;
      }
    </style>
  </defs>
  <path class="cls-1" d="m8.3,32.14h-4.04c0-3.92-.15-7.67.13-11.4.05-.72,1.73-1.8,2.72-1.88,3.15-.25,6.33-.03,9.49-.15,3.74-.14,6.21-2.35,6.19-5.34-.02-2.97-2.58-5.25-6.22-5.33-3.98-.09-7.96-.02-12.12-.02V3.42c4.91,0,9.67-.45,14.31.12,5.49.68,8.97,5.46,8.59,10.57-.38,5.13-4.5,9.03-9.98,9.4-2.65.18-6.15-.7-7.72.67-1.48,1.3-.94,4.92-1.34,7.96Z"/>
</svg>